PathFileType  4	(X/Y/Z) C:\Users\antoi\Documents\MyRepositories\mobilecap\ResultsAnalysis
DataRate	CameraRate	NumFrames	NumMarkers	Units	OrigDataRate	OrigDataStartFrame	OrigNumFrames
100.0	100.0	4	51	mm	100.0	661	1321
Frame#	Time	r_knee			r_shank_antsup			r_ankle			r_calc			r_5meta			r_toe			L_knee			L_shank_antsup			L_ankle			L_calc			L_5meta			L_toe			r_sh2			r_sh3			r_sh4			L_sh2			L_sh3			r_thigh1			r_thigh2			r_thigh3			r_thigh4			r_thigh5			L_thigh1			L_thigh2			L_thigh3			L_thigh4			r.ASIS			r.PSIS			L.ASIS			L.PSIS			C7			R_Shoulder			L_Shoulder			R_Sternum			L_Sternum			R_humerus			R_elbow_med			R_elbow_lat			R_forearm			R_wrist_radius			R_wrist_ulna			L_humerus			L_elbow_med			L_elbow_lat			L_forearm			L_wrist_radius			L_wrist_ulna			R_HJC			L_HJC			R_HJC_reg			L_HJC_reg			
		X1	Y1	Z1	X2	Y2	Z2	X3	Y3	Z3	X4	Y4	Z4	X5	Y5	Z5	X6	Y6	Z6	X7	Y7	Z7	X8	Y8	Z8	X9	Y9	Z9	X10	Y10	Z10	X11	Y11	Z11	X12	Y12	Z12	X13	Y13	Z13	X14	Y14	Z14	X15	Y15	Z15	X16	Y16	Z16	X17	Y17	Z17	X18	Y18	Z18	X19	Y19	Z19	X20	Y20	Z20	X21	Y21	Z21	X22	Y22	Z22	X23	Y23	Z23	X24	Y24	Z24	X25	Y25	Z25	X26	Y26	Z26	X27	Y27	Z27	X28	Y28	Z28	X29	Y29	Z29	X30	Y30	Z30	X31	Y31	Z31	X32	Y32	Z32	X33	Y33	Z33	X34	Y34	Z34	X35	Y35	Z35	X36	Y36	Z36	X37	Y37	Z37	X38	Y38	Z38	X39	Y39	Z39	X40	Y40	Z40	X41	Y41	Z41	X42	Y42	Z42	X43	Y43	Z43	X44	Y44	Z44	X45	Y45	Z45	X46	Y46	Z46	X47	Y47	Z47	X48	Y48	Z48	X49	Y49	Z49	X50	Y50	Z50	X51	Y51	Z51	

661	6.60000000	-105.97895	410.91786	-357.57606	-63.70120	341.61052	-361.31438	-272.47858	87.63474	-383.66437	-331.59516	58.30801	-430.34885	-174.04973	41.31502	-349.78036	-132.85004	56.70334	-401.61304	-98.26509	413.67088	-796.43241	-69.82096	315.58260	-788.29475	-270.85876	94.05741	-783.44054	-334.01726	56.61830	-738.17482	-181.38703	44.48672	-826.76428	-127.72040	57.31780	-776.50257	-125.11077	247.18267	-359.76330	-122.13507	383.30054	-330.74021	-191.55839	286.80862	-332.98440	-134.72231	366.83137	-821.74227	-197.34712	261.43354	-828.24053	-313.37755	549.21273	-349.58857	-208.35889	511.94456	-346.45714	-246.23988	407.39180	-370.95862	-357.21717	447.85878	-361.37929	-212.84361	441.13845	-344.26025	-327.64507	571.47755	-774.75042	-203.77218	515.47403	-781.22836	-381.94417	472.11592	-779.49859	-254.06700	413.87554	-773.57506	-305.65016	587.47731	-454.55272	-462.11823	707.44702	-526.03153	-303.06378	587.84837	-667.15482	-463.09696	704.63062	-605.52836	-81.98458	932.66121	-561.63682	-25.22592	884.60225	-439.63484	-32.34245	885.64763	-688.03560	-3.47616	817.75425	-545.69715	-7.57250	817.40950	-576.30847	31.71426	827.39174	-372.45542	108.87840	635.34735	-310.67121	127.08858	684.74479	-266.98329	205.50461	732.04887	-291.88822	332.59498	759.82525	-345.23631	346.60690	731.78960	-322.83936	14.48372	830.82081	-763.41726	127.42912	641.56226	-794.24694	135.01429	690.58366	-838.85153	233.60754	729.36684	-818.83281	346.36606	758.57691	-769.56021	359.32154	724.59438	-786.73874	-414.12081	547.10631	-457.23447	-410.97028	548.52877	-664.71291	-394.64397	567.21468	-481.49934	-396.37055	562.24659	-621.72864	
662	6.61000000	-105.69281	410.34835	-356.63492	-63.38418	341.30764	-360.36577	-272.42606	87.61743	-383.82473	-331.52247	58.47376	-430.63641	-174.03816	41.32514	-349.77604	-132.77513	56.58451	-401.51696	-98.03384	413.33601	-796.39986	-69.47414	315.21873	-788.04591	-270.81374	94.12936	-783.14363	-333.94528	56.64289	-737.87155	-181.41659	44.53626	-826.70402	-127.68833	57.27540	-776.45556	-124.76500	246.83719	-359.19462	-121.97381	382.74861	-330.10035	-191.33299	286.20313	-332.54409	-134.29893	366.60346	-821.74986	-197.06304	261.08005	-828.06595	-314.22209	547.05578	-348.86018	-208.97160	510.91004	-345.60638	-245.92810	405.70477	-370.09883	-357.18063	445.27872	-360.97658	-212.80351	439.62058	-343.61616	-328.48595	569.31198	-774.61193	-204.35244	514.13006	-780.75921	-382.16567	469.51539	-779.34532	-253.91798	412.13387	-773.32735	-306.44069	584.36523	-454.23040	-462.73686	703.96663	-525.95351	-303.73670	584.93430	-666.56527	-463.62559	701.07913	-605.51511	-80.96451	927.30848	-562.13586	-24.15667	879.32519	-439.87886	-31.38308	879.89503	-688.04374	-2.86846	812.02670	-545.87352	-7.02791	811.56770	-576.21569	32.93166	822.42557	-372.93453	110.79431	630.49578	-311.38687	128.78264	680.33778	-267.18247	207.08545	727.75381	-292.21939	334.21088	755.73175	-345.69509	348.19274	727.82587	-323.19381	15.60285	825.34103	-763.38557	128.98537	636.44395	-794.42104	136.43540	685.51035	-838.96450	234.91258	724.64639	-818.82327	347.46281	754.33575	-769.61067	360.55544	720.28631	-786.77684	-414.78709	543.79790	-457.02891	-411.30227	545.21633	-664.50184	-395.31709	564.18088	-481.21507	-396.88221	559.09915	-621.26689	
663	6.62000000	-105.47226	409.95852	-355.49611	-63.16637	340.99059	-359.40147	-272.33079	87.68664	-383.87040	-331.42820	58.61106	-430.86630	-174.02461	41.34765	-349.76597	-132.69157	56.50822	-401.46202	-97.77353	412.93301	-796.32133	-69.22288	314.78229	-787.49203	-270.73914	94.19672	-782.92923	-333.89577	56.67163	-737.67311	-181.49091	44.58232	-826.60320	-127.65199	57.23743	-776.40874	-124.45569	246.35775	-358.71796	-121.92151	382.18657	-329.32178	-191.20817	285.52074	-332.18216	-133.90639	366.35707	-821.76748	-196.83621	260.88513	-828.01774	-315.15993	544.94024	-348.04319	-209.95786	509.68371	-344.36390	-245.65138	404.01345	-369.29068	-357.15363	442.80368	-360.58469	-212.79963	438.09793	-342.91897	-329.36613	567.27485	-774.42851	-204.92096	512.88251	-780.64599	-382.39556	467.10616	-779.09826	-253.85341	410.39237	-772.84621	-307.18439	581.54747	-453.90038	-463.32668	700.75610	-525.77720	-304.36953	582.44508	-666.06441	-464.08856	697.76018	-605.38064	-80.03058	922.16548	-562.40605	-23.16259	874.34585	-440.11082	-30.51994	874.47718	-688.02925	-2.27169	806.64641	-545.85316	-6.36091	806.13578	-576.29589	34.12561	817.78915	-373.31626	112.67616	625.95036	-311.76192	130.43297	676.23404	-267.37440	208.59995	723.74296	-292.53950	335.62753	751.89675	-346.31761	349.80079	724.08310	-323.56697	16.60028	820.17576	-763.41234	130.39794	631.81298	-794.95002	137.66041	680.72134	-839.06236	236.05994	720.15540	-818.90268	348.46172	750.25577	-769.74114	361.64873	716.27220	-786.99490	-415.34037	540.71166	-456.84819	-411.56631	542.26472	-664.31508	-395.98357	561.49835	-480.96881	-397.32276	556.23274	-620.90549	
664	6.63000000	-105.37003	409.67822	-354.28708	-63.02406	340.65692	-358.40348	-272.18092	87.79636	-383.80102	-331.31931	58.69166	-430.97768	-174.00314	41.36004	-349.74341	-132.60166	56.48661	-401.46090	-97.50831	412.56145	-796.40396	-68.99721	314.26645	-786.84917	-270.64754	94.25783	-782.82130	-333.84004	56.72647	-737.59097	-181.58128	44.61130	-826.46532	-127.62172	57.19174	-776.36792	-124.25948	246.13303	-358.04633	-121.90922	381.78290	-328.24604	-191.14086	284.93769	-331.77956	-133.57204	366.09818	-821.81158	-196.65583	260.70285	-827.97941	-316.12970	542.84227	-347.38798	-211.01654	507.93701	-343.30995	-245.44640	402.34173	-368.71479	-357.27339	440.39897	-360.00494	-212.90198	436.63022	-342.13786	-330.22745	565.32489	-774.28516	-205.41195	511.64581	-780.76520	-382.64554	464.84874	-778.95767	-253.80414	408.82007	-772.54605	-307.81565	579.00710	-453.45323	-463.84498	697.76767	-525.58798	-305.07349	580.21994	-665.94129	-464.49902	694.67487	-605.03178	-79.29184	917.26270	-562.52253	-22.22542	869.58818	-440.62509	-29.77761	869.49005	-688.12883	-1.76821	801.58295	-545.87532	-5.75055	801.14814	-576.51288	35.28201	813.47153	-373.63732	114.37310	622.10663	-311.44841	132.02961	672.38631	-267.61549	210.06211	720.03874	-292.89794	336.86417	748.34019	-347.05547	351.31880	720.56386	-324.05496	17.41505	815.35389	-763.39559	131.65011	627.42829	-795.17697	138.71093	676.25400	-839.11533	236.94950	715.93735	-819.08953	349.34588	746.38061	-769.96852	362.63949	712.50381	-787.19263	-415.73277	537.85381	-456.66071	-411.89528	539.58029	-664.12536	-396.67958	558.93913	-480.66042	-397.83270	553.48308	-620.80585	
